<mxfile host="Electron" agent="Mozilla/5.0 (Windows NT 10.0; Win64; x64) AppleWebKit/537.36 (KHTML, like Gecko) draw.io/24.7.17 Chrome/128.0.6613.36 Electron/32.0.1 Safari/537.36" version="24.7.17">
  <diagram name="PÃ¡gina-1" id="ETyMHp5KcEsKZALEvWAH">
    <mxGraphModel dx="1185" dy="688" grid="1" gridSize="10" guides="1" tooltips="1" connect="1" arrows="1" fold="1" page="1" pageScale="1" pageWidth="827" pageHeight="1169" math="0" shadow="0">
      <root>
        <mxCell id="0" />
        <mxCell id="1" parent="0" />
        <mxCell id="XQYBPlJzB39jy5n7nEpT-1" value="ASIGNATURA" style="whiteSpace=wrap;html=1;align=center;" parent="1" vertex="1">
          <mxGeometry x="45" y="110" width="110" height="40" as="geometry" />
        </mxCell>
        <mxCell id="XQYBPlJzB39jy5n7nEpT-2" value="PROFESOR" style="whiteSpace=wrap;html=1;align=center;" parent="1" vertex="1">
          <mxGeometry x="515" y="110" width="90" height="40" as="geometry" />
        </mxCell>
        <mxCell id="XQYBPlJzB39jy5n7nEpT-3" value="Impartir" style="shape=rhombus;perimeter=rhombusPerimeter;whiteSpace=wrap;html=1;align=center;" parent="1" vertex="1">
          <mxGeometry x="275" y="100" width="120" height="60" as="geometry" />
        </mxCell>
        <mxCell id="XQYBPlJzB39jy5n7nEpT-4" value="ALUMNOS" style="whiteSpace=wrap;html=1;align=center;" parent="1" vertex="1">
          <mxGeometry x="55" y="390" width="90" height="40" as="geometry" />
        </mxCell>
        <mxCell id="XQYBPlJzB39jy5n7nEpT-5" value="Matricular" style="shape=rhombus;perimeter=rhombusPerimeter;whiteSpace=wrap;html=1;align=center;" parent="1" vertex="1">
          <mxGeometry x="40" y="240" width="120" height="60" as="geometry" />
        </mxCell>
        <mxCell id="XQYBPlJzB39jy5n7nEpT-7" value="AULA" style="whiteSpace=wrap;html=1;align=center;" parent="1" vertex="1">
          <mxGeometry x="525" y="250" width="70" height="40" as="geometry" />
        </mxCell>
        <mxCell id="XQYBPlJzB39jy5n7nEpT-8" value="Nombre" style="ellipse;whiteSpace=wrap;html=1;align=center;" parent="1" vertex="1">
          <mxGeometry x="450" y="330" width="100" height="40" as="geometry" />
        </mxCell>
        <mxCell id="XQYBPlJzB39jy5n7nEpT-9" value="1, M" style="endArrow=none;html=1;rounded=0;exitX=0.5;exitY=1;exitDx=0;exitDy=0;entryX=0.5;entryY=0;entryDx=0;entryDy=0;edgeStyle=orthogonalEdgeStyle;verticalAlign=bottom;" parent="1" source="XQYBPlJzB39jy5n7nEpT-1" target="XQYBPlJzB39jy5n7nEpT-5" edge="1">
          <mxGeometry relative="1" as="geometry">
            <mxPoint x="215" y="200" as="sourcePoint" />
            <mxPoint x="469" y="450" as="targetPoint" />
          </mxGeometry>
        </mxCell>
        <mxCell id="XQYBPlJzB39jy5n7nEpT-10" value="0, M" style="endArrow=none;html=1;rounded=0;exitX=0.5;exitY=1;exitDx=0;exitDy=0;entryX=0.5;entryY=0;entryDx=0;entryDy=0;edgeStyle=orthogonalEdgeStyle;verticalAlign=bottom;" parent="1" source="XQYBPlJzB39jy5n7nEpT-5" target="XQYBPlJzB39jy5n7nEpT-4" edge="1">
          <mxGeometry relative="1" as="geometry">
            <mxPoint x="110" y="320" as="sourcePoint" />
            <mxPoint x="110" y="430" as="targetPoint" />
          </mxGeometry>
        </mxCell>
        <mxCell id="XQYBPlJzB39jy5n7nEpT-11" value="0, M" style="endArrow=none;html=1;rounded=0;exitX=0;exitY=0.5;exitDx=0;exitDy=0;entryX=1;entryY=0.5;entryDx=0;entryDy=0;edgeStyle=orthogonalEdgeStyle;verticalAlign=bottom;" parent="1" source="XQYBPlJzB39jy5n7nEpT-3" target="XQYBPlJzB39jy5n7nEpT-1" edge="1">
          <mxGeometry relative="1" as="geometry">
            <mxPoint x="120" y="170" as="sourcePoint" />
            <mxPoint x="120" y="280" as="targetPoint" />
          </mxGeometry>
        </mxCell>
        <mxCell id="XQYBPlJzB39jy5n7nEpT-12" value="1, 1" style="endArrow=none;html=1;rounded=0;exitX=0;exitY=0.5;exitDx=0;exitDy=0;entryX=1;entryY=0.5;entryDx=0;entryDy=0;edgeStyle=orthogonalEdgeStyle;verticalAlign=bottom;" parent="1" source="XQYBPlJzB39jy5n7nEpT-2" target="XQYBPlJzB39jy5n7nEpT-3" edge="1">
          <mxGeometry relative="1" as="geometry">
            <mxPoint x="545" y="190" as="sourcePoint" />
            <mxPoint x="425" y="190" as="targetPoint" />
          </mxGeometry>
        </mxCell>
        <mxCell id="XQYBPlJzB39jy5n7nEpT-13" value="" style="endArrow=none;html=1;rounded=0;exitX=0.5;exitY=0;exitDx=0;exitDy=0;entryX=0.5;entryY=1;entryDx=0;entryDy=0;verticalAlign=bottom;" parent="1" source="XQYBPlJzB39jy5n7nEpT-8" target="XQYBPlJzB39jy5n7nEpT-7" edge="1">
          <mxGeometry relative="1" as="geometry">
            <mxPoint x="225" y="50" as="sourcePoint" />
            <mxPoint x="479" y="300" as="targetPoint" />
          </mxGeometry>
        </mxCell>
        <mxCell id="XQYBPlJzB39jy5n7nEpT-31" value="Asignar" style="shape=rhombus;perimeter=rhombusPerimeter;whiteSpace=wrap;html=1;align=center;" parent="1" vertex="1">
          <mxGeometry x="290" y="245" width="90" height="50" as="geometry" />
        </mxCell>
        <mxCell id="XQYBPlJzB39jy5n7nEpT-32" value="0, M" style="endArrow=none;html=1;rounded=0;exitX=0.75;exitY=1;exitDx=0;exitDy=0;entryX=0;entryY=0;entryDx=0;entryDy=0;verticalAlign=bottom;" parent="1" source="XQYBPlJzB39jy5n7nEpT-1" target="XQYBPlJzB39jy5n7nEpT-31" edge="1">
          <mxGeometry x="0.191" y="5" relative="1" as="geometry">
            <mxPoint x="205" y="190" as="sourcePoint" />
            <mxPoint x="459" y="440" as="targetPoint" />
            <mxPoint as="offset" />
          </mxGeometry>
        </mxCell>
        <mxCell id="XQYBPlJzB39jy5n7nEpT-33" value="1, M" style="endArrow=none;html=1;rounded=0;exitX=1;exitY=0.5;exitDx=0;exitDy=0;entryX=0;entryY=0.5;entryDx=0;entryDy=0;edgeStyle=orthogonalEdgeStyle;verticalAlign=bottom;" parent="1" source="XQYBPlJzB39jy5n7nEpT-31" target="XQYBPlJzB39jy5n7nEpT-7" edge="1">
          <mxGeometry relative="1" as="geometry">
            <mxPoint x="205" y="190" as="sourcePoint" />
            <mxPoint x="459" y="440" as="targetPoint" />
          </mxGeometry>
        </mxCell>
        <mxCell id="XQYBPlJzB39jy5n7nEpT-84" value="&lt;b&gt;1 : M&amp;nbsp;&lt;/b&gt;&lt;div&gt;&lt;b&gt;obligatoria opcional&lt;/b&gt;&lt;/div&gt;" style="text;html=1;align=center;verticalAlign=middle;whiteSpace=wrap;rounded=0;" parent="1" vertex="1">
          <mxGeometry x="245" y="60" width="180" height="30" as="geometry" />
        </mxCell>
        <mxCell id="XQYBPlJzB39jy5n7nEpT-85" value="&lt;b&gt;M : M&lt;/b&gt;&lt;div&gt;&lt;b&gt;obligatoria opcional&lt;/b&gt;&lt;b&gt;&lt;br&gt;&lt;/b&gt;&lt;/div&gt;" style="text;html=1;align=center;verticalAlign=middle;whiteSpace=wrap;rounded=0;" parent="1" vertex="1">
          <mxGeometry x="155" y="270" width="80" height="30" as="geometry" />
        </mxCell>
        <mxCell id="XQYBPlJzB39jy5n7nEpT-86" value="&lt;b&gt;M : M obligatoria opcional&lt;/b&gt;" style="text;html=1;align=center;verticalAlign=middle;whiteSpace=wrap;rounded=0;" parent="1" vertex="1">
          <mxGeometry x="305" y="215" width="180" height="30" as="geometry" />
        </mxCell>
        <mxCell id="otvgDVu02tWetNlGYpqO-1" value="&lt;u&gt;numMat&lt;/u&gt;" style="ellipse;whiteSpace=wrap;html=1;align=center;" vertex="1" parent="1">
          <mxGeometry x="50" y="470" width="100" height="40" as="geometry" />
        </mxCell>
        <mxCell id="otvgDVu02tWetNlGYpqO-2" value="" style="endArrow=none;html=1;rounded=0;entryX=0.5;entryY=1;entryDx=0;entryDy=0;exitX=0.5;exitY=0;exitDx=0;exitDy=0;" edge="1" parent="1" source="otvgDVu02tWetNlGYpqO-1" target="XQYBPlJzB39jy5n7nEpT-4">
          <mxGeometry width="50" height="50" relative="1" as="geometry">
            <mxPoint x="235" y="460" as="sourcePoint" />
            <mxPoint x="210" y="410" as="targetPoint" />
          </mxGeometry>
        </mxCell>
        <mxCell id="otvgDVu02tWetNlGYpqO-3" value="&lt;u&gt;numAula&lt;/u&gt;" style="ellipse;whiteSpace=wrap;html=1;align=center;" vertex="1" parent="1">
          <mxGeometry x="570" y="330" width="100" height="40" as="geometry" />
        </mxCell>
        <mxCell id="otvgDVu02tWetNlGYpqO-4" value="" style="endArrow=none;html=1;rounded=0;exitX=0.5;exitY=0;exitDx=0;exitDy=0;entryX=0.5;entryY=1;entryDx=0;entryDy=0;verticalAlign=bottom;" edge="1" parent="1" source="otvgDVu02tWetNlGYpqO-3" target="XQYBPlJzB39jy5n7nEpT-7">
          <mxGeometry relative="1" as="geometry">
            <mxPoint x="510" y="340" as="sourcePoint" />
            <mxPoint x="570" y="300" as="targetPoint" />
          </mxGeometry>
        </mxCell>
        <mxCell id="otvgDVu02tWetNlGYpqO-5" value="&lt;u&gt;codAsig&lt;/u&gt;" style="ellipse;whiteSpace=wrap;html=1;align=center;" vertex="1" parent="1">
          <mxGeometry x="50" y="30" width="100" height="40" as="geometry" />
        </mxCell>
        <mxCell id="otvgDVu02tWetNlGYpqO-6" value="" style="endArrow=none;html=1;rounded=0;exitX=0.5;exitY=0;exitDx=0;exitDy=0;entryX=0.5;entryY=1;entryDx=0;entryDy=0;" edge="1" parent="1" source="XQYBPlJzB39jy5n7nEpT-1" target="otvgDVu02tWetNlGYpqO-5">
          <mxGeometry width="50" height="50" relative="1" as="geometry">
            <mxPoint x="430" y="240" as="sourcePoint" />
            <mxPoint x="480" y="190" as="targetPoint" />
          </mxGeometry>
        </mxCell>
        <mxCell id="otvgDVu02tWetNlGYpqO-7" value="&lt;u&gt;codProf&lt;/u&gt;" style="ellipse;whiteSpace=wrap;html=1;align=center;" vertex="1" parent="1">
          <mxGeometry x="510" y="30" width="100" height="40" as="geometry" />
        </mxCell>
        <mxCell id="otvgDVu02tWetNlGYpqO-8" value="" style="endArrow=none;html=1;rounded=0;entryX=0.5;entryY=0;entryDx=0;entryDy=0;exitX=0.5;exitY=1;exitDx=0;exitDy=0;" edge="1" parent="1" source="otvgDVu02tWetNlGYpqO-7" target="XQYBPlJzB39jy5n7nEpT-2">
          <mxGeometry width="50" height="50" relative="1" as="geometry">
            <mxPoint x="430" y="240" as="sourcePoint" />
            <mxPoint x="480" y="190" as="targetPoint" />
          </mxGeometry>
        </mxCell>
      </root>
    </mxGraphModel>
  </diagram>
</mxfile>
